<svg width="512" height="512" viewBox="0 0 512 512" fill="none" xmlns="http://www.w3.org/2000/svg">
<circle cx="256" cy="256" r="256" fill="white"/>
<path d="M370.4 111.34V391.06C370.4 400.86 368.86 407.3 365.78 410.38C362.98 413.46 356.82 415 347.3 415H287.66C271.14 415 260.22 412.48 254.9 407.44C249.86 402.4 245.38 389.38 241.46 368.38C233.62 326.94 222.28 260.02 207.44 167.62C206.32 160.62 204.64 156.14 202.4 154.18C200.44 152.22 196.94 151.1 191.9 150.82H140.24V111.34H231.38C238.38 111.34 243.98 112.18 248.18 113.86C252.38 115.54 255.74 119.18 258.26 124.78C261.06 130.1 262.88 135.28 263.72 140.32C264.84 145.36 265.96 151.24 267.08 157.96C268.48 166.08 270.44 177.98 272.96 193.66C277.72 225.3 285.14 269.96 295.22 327.64C299.14 352.28 301.8 366.14 303.2 369.22C304.88 372.02 307.68 373.7 311.6 374.26V128.14C311.6 123.1 313 119.04 315.8 115.96C318.6 112.88 322.24 111.34 326.72 111.34H370.4ZM140.24 165.52H183.92C188.4 165.52 192.04 167.06 194.84 170.14C197.64 173.22 199.04 177.28 199.04 182.32V391.06C199.04 400.58 197.78 407.02 195.26 410.38C192.74 413.46 187.7 415 180.14 415H140.24V165.52Z" fill="#EEBE13"/>
</svg>
